<svg xmlns="http://www.w3.org/2000/svg" width="1460" height="574" viewBox="0 0 1460 574">
<rect width="100%" height="100%" fill="#f8fafc"/>
<text x="24" y="36" font-family="Arial, Helvetica, sans-serif" font-size="28" font-weight="700" fill="#0f172a">Project Evolution Timeline</text>
<text x="24" y="64" font-family="Arial, Helvetica, sans-serif" font-size="14" fill="#475569">From repository creation to the current committed state.</text>
<rect x="1140" y="24" width="14" height="14" rx="3" fill="#22c55e" stroke="#0f172a" stroke-width="1"/>
<text x="1162" y="36" font-family="Arial, Helvetica, sans-serif" font-size="13" fill="#0f172a">Done</text>
<rect x="1140" y="46" width="14" height="14" rx="3" fill="#f59e0b" stroke="#0f172a" stroke-width="1"/>
<text x="1162" y="58" font-family="Arial, Helvetica, sans-serif" font-size="13" fill="#0f172a">In Progress</text>
<rect x="1140" y="68" width="14" height="14" rx="3" fill="#94a3b8" stroke="#0f172a" stroke-width="1"/>
<text x="1162" y="80" font-family="Arial, Helvetica, sans-serif" font-size="13" fill="#0f172a">Planned</text>
<line x1="1140" y1="100" x2="1154" y2="100" stroke="#ef4444" stroke-width="3"/>
<text x="1162" y="104" font-family="Arial, Helvetica, sans-serif" font-size="13" fill="#0f172a">Today</text>
<line x1="300" y1="100" x2="300" y2="524" stroke="#cbd5e1" stroke-width="1" stroke-dasharray="4 4"/>
<text x="304" y="84" font-family="Arial, Helvetica, sans-serif" font-size="12" fill="#475569">2025-12</text>
<line x1="616" y1="100" x2="616" y2="524" stroke="#cbd5e1" stroke-width="1" stroke-dasharray="4 4"/>
<text x="620" y="84" font-family="Arial, Helvetica, sans-serif" font-size="12" fill="#475569">2026-01</text>
<line x1="931" y1="100" x2="931" y2="524" stroke="#cbd5e1" stroke-width="1" stroke-dasharray="4 4"/>
<text x="935" y="84" font-family="Arial, Helvetica, sans-serif" font-size="12" fill="#475569">2026-02</text>
<line x1="1217" y1="100" x2="1217" y2="524" stroke="#cbd5e1" stroke-width="1" stroke-dasharray="4 4"/>
<text x="1221" y="84" font-family="Arial, Helvetica, sans-serif" font-size="12" fill="#475569">2026-03</text>
<line x1="1400" y1="96" x2="1400" y2="524" stroke="#ef4444" stroke-width="2"/>
<text x="1406" y="552" font-family="Arial, Helvetica, sans-serif" font-size="12" fill="#ef4444">Today (2026-03-19)</text>
<text x="24" y="134" font-family="Arial, Helvetica, sans-serif" font-size="14" font-weight="700" fill="#0f172a">Repository Initialization</text>
<text x="24" y="152" font-family="Arial, Helvetica, sans-serif" font-size="12" fill="#475569">2025-12-01 → 2025-12-01</text>
<line x1="300" y1="162" x2="1400" y2="162" stroke="#e2e8f0" stroke-width="1"/>
<rect x="300" y="118" width="10" height="26" rx="6" fill="#22c55e" stroke="#0f172a" stroke-width="1.2"/>
<text x="308" y="135" font-family="Arial, Helvetica, sans-serif" font-size="12" font-weight="700" fill="#0f172a">Done</text>
<text x="24" y="186" font-family="Arial, Helvetica, sans-serif" font-size="14" font-weight="700" fill="#0f172a">SFRA Foundation</text>
<text x="24" y="204" font-family="Arial, Helvetica, sans-serif" font-size="12" fill="#475569">2026-02-03 → 2026-02-04</text>
<line x1="300" y1="214" x2="1400" y2="214" stroke="#e2e8f0" stroke-width="1"/>
<rect x="952" y="170" width="20" height="26" rx="6" fill="#22c55e" stroke="#0f172a" stroke-width="1.2"/>
<text x="960" y="187" font-family="Arial, Helvetica, sans-serif" font-size="12" font-weight="700" fill="#0f172a">Done</text>
<text x="24" y="238" font-family="Arial, Helvetica, sans-serif" font-size="14" font-weight="700" fill="#0f172a">Walmart Storefront Skeleton</text>
<text x="24" y="256" font-family="Arial, Helvetica, sans-serif" font-size="12" fill="#475569">2026-03-10 → 2026-03-10</text>
<line x1="300" y1="266" x2="1400" y2="266" stroke="#e2e8f0" stroke-width="1"/>
<rect x="1308" y="222" width="11" height="26" rx="6" fill="#22c55e" stroke="#0f172a" stroke-width="1.2"/>
<text x="1316" y="239" font-family="Arial, Helvetica, sans-serif" font-size="12" font-weight="700" fill="#0f172a">Done</text>
<text x="24" y="290" font-family="Arial, Helvetica, sans-serif" font-size="14" font-weight="700" fill="#0f172a">Retail UI and Assets</text>
<text x="24" y="308" font-family="Arial, Helvetica, sans-serif" font-size="12" fill="#475569">2026-03-11 → 2026-03-11</text>
<line x1="300" y1="318" x2="1400" y2="318" stroke="#e2e8f0" stroke-width="1"/>
<rect x="1319" y="274" width="10" height="26" rx="6" fill="#22c55e" stroke="#0f172a" stroke-width="1.2"/>
<text x="1327" y="291" font-family="Arial, Helvetica, sans-serif" font-size="12" font-weight="700" fill="#0f172a">Done</text>
<text x="24" y="342" font-family="Arial, Helvetica, sans-serif" font-size="14" font-weight="700" fill="#0f172a">Admin Console Architecture</text>
<text x="24" y="360" font-family="Arial, Helvetica, sans-serif" font-size="12" fill="#475569">2026-03-11 → 2026-03-11</text>
<line x1="300" y1="370" x2="1400" y2="370" stroke="#e2e8f0" stroke-width="1"/>
<rect x="1319" y="326" width="10" height="26" rx="6" fill="#22c55e" stroke="#0f172a" stroke-width="1.2"/>
<text x="1327" y="343" font-family="Arial, Helvetica, sans-serif" font-size="12" font-weight="700" fill="#0f172a">Done</text>
<text x="24" y="394" font-family="Arial, Helvetica, sans-serif" font-size="14" font-weight="700" fill="#0f172a">Integration Server Layer</text>
<text x="24" y="412" font-family="Arial, Helvetica, sans-serif" font-size="12" fill="#475569">2026-03-12 → 2026-03-12</text>
<line x1="300" y1="422" x2="1400" y2="422" stroke="#e2e8f0" stroke-width="1"/>
<rect x="1329" y="378" width="10" height="26" rx="6" fill="#22c55e" stroke="#0f172a" stroke-width="1.2"/>
<text x="1337" y="395" font-family="Arial, Helvetica, sans-serif" font-size="12" font-weight="700" fill="#0f172a">Done</text>
<text x="24" y="446" font-family="Arial, Helvetica, sans-serif" font-size="14" font-weight="700" fill="#0f172a">Shared Catalog and Cart</text>
<text x="24" y="464" font-family="Arial, Helvetica, sans-serif" font-size="12" fill="#475569">2026-03-19 → 2026-03-19</text>
<line x1="300" y1="474" x2="1400" y2="474" stroke="#e2e8f0" stroke-width="1"/>
<rect x="1400" y="430" width="10" height="26" rx="6" fill="#22c55e" stroke="#0f172a" stroke-width="1.2"/>
<text x="1408" y="447" font-family="Arial, Helvetica, sans-serif" font-size="12" font-weight="700" fill="#0f172a">Done</text>
</svg>