<svg xmlns="http://www.w3.org/2000/svg" width="1180" height="760" viewBox="0 0 1180 760" role="img" aria-labelledby="title desc">
  <title id="title">Local SFRA Simulation Server Structure</title>
  <desc id="desc">Rectangle diagram showing server, console, storefront, and data folder interactions.</desc>

  <defs>
    <style>
      .title { font: 700 28px Arial, sans-serif; fill: #0f172a; }
      .subtitle { font: 500 16px Arial, sans-serif; fill: #334155; }
      .label { font: 600 16px Arial, sans-serif; fill: #0f172a; }
      .small { font: 400 14px Arial, sans-serif; fill: #1e293b; }
      .box { stroke-width: 2; rx: 12; ry: 12; }
      .arrow { stroke: #334155; stroke-width: 2.5; fill: none; marker-end: url(#arrowhead); }
    </style>
    <marker id="arrowhead" markerWidth="10" markerHeight="7" refX="9" refY="3.5" orient="auto">
      <polygon points="0 0, 10 3.5, 0 7" fill="#334155" />
    </marker>
  </defs>

  <rect x="0" y="0" width="1180" height="760" fill="#f8fafc" />
  <text class="title" x="40" y="55">Local SFRA Simulation - Server Structure</text>
  <text class="subtitle" x="40" y="85">Rectangles represent isolated layers and their shared runtime/data flow</text>

  <rect class="box" x="60" y="140" width="270" height="220" fill="#e0f2fe" stroke="#0284c7" />
  <text class="label" x="80" y="175">console/</text>
  <text class="small" x="80" y="205">admin.html</text>
  <text class="small" x="80" y="230">admin.css</text>
  <text class="small" x="80" y="255">admin.js</text>
  <text class="small" x="80" y="295">Purpose: Admin UI only</text>

  <rect class="box" x="450" y="120" width="300" height="500" fill="#dcfce7" stroke="#16a34a" />
  <text class="label" x="470" y="155">server/</text>
  <text class="small" x="470" y="185">app.js (Express + Nunjucks)</text>
  <text class="small" x="470" y="215">routes/ (admin, storefront, api)</text>
  <text class="small" x="470" y="245">controllers/ (storefront + api)</text>
  <text class="small" x="470" y="275">services/ (product/category/order)</text>
  <text class="small" x="470" y="305">utils/fileStore.js</text>

  <rect class="box" x="490" y="340" width="220" height="250" fill="#bbf7d0" stroke="#15803d" />
  <text class="small" x="510" y="370">Runtime responsibilities:</text>
  <text class="small" x="510" y="400">1) Serve /admin</text>
  <text class="small" x="510" y="425">2) Render /, /product/:id, /cart</text>
  <text class="small" x="510" y="450">3) Expose /api/* endpoints</text>
  <text class="small" x="510" y="475">4) Read/write shared JSON</text>
  <text class="small" x="510" y="500">5) Keep single source of truth</text>

  <rect class="box" x="850" y="140" width="270" height="260" fill="#ede9fe" stroke="#7c3aed" />
  <text class="label" x="870" y="175">storefront/</text>
  <text class="small" x="870" y="205">views/home.njk</text>
  <text class="small" x="870" y="230">views/product.njk</text>
  <text class="small" x="870" y="255">views/cart.njk</text>
  <text class="small" x="870" y="280">public/css, js, images</text>
  <text class="small" x="870" y="320">Purpose: Shopper UI/templates</text>

  <rect class="box" x="850" y="470" width="270" height="190" fill="#fee2e2" stroke="#dc2626" />
  <text class="label" x="870" y="505">data/</text>
  <text class="small" x="870" y="535">products.json</text>
  <text class="small" x="870" y="560">categories.json</text>
  <text class="small" x="870" y="585">orders.json</text>
  <text class="small" x="870" y="620">Shared source of truth</text>

  <path class="arrow" d="M330 250 L450 250" />
  <text class="small" x="345" y="240">/admin + /api access</text>

  <path class="arrow" d="M850 260 L750 260" />
  <text class="small" x="760" y="248">rendered pages + assets</text>

  <path class="arrow" d="M750 520 L850 560" />
  <text class="small" x="700" y="545">read/write JSON</text>

  <path class="arrow" d="M850 520 L750 495" />
  <text class="small" x="770" y="500">API responses</text>
</svg>
