<svg xmlns="http://www.w3.org/2000/svg" width="1180" height="760" viewBox="0 0 1180 760" role="img" aria-labelledby="title desc">
  <title id="title">Local SFRA Simulation Server Structure</title>
  <desc id="desc">Enhanced architecture map showing console, server, storefront, and data layers with highlighted runtime flow.</desc>

  <defs>
    <linearGradient id="bgGrad" x1="0" y1="0" x2="1" y2="1">
      <stop offset="0%" stop-color="#f8fbff"/>
      <stop offset="100%" stop-color="#eef4ff"/>
    </linearGradient>
    <linearGradient id="cardShine" x1="0" y1="0" x2="1" y2="1">
      <stop offset="0%" stop-color="#ffffff" stop-opacity="0.75"/>
      <stop offset="100%" stop-color="#ffffff" stop-opacity="0"/>
    </linearGradient>
    <filter id="softShadow" x="-20%" y="-20%" width="140%" height="150%">
      <feDropShadow dx="0" dy="10" stdDeviation="8" flood-color="#1e293b" flood-opacity="0.18"/>
    </filter>
    <filter id="nodeGlow" x="-50%" y="-50%" width="200%" height="200%">
      <feDropShadow dx="0" dy="0" stdDeviation="7" flood-color="#93c5fd" flood-opacity="0.4"/>
    </filter>
    <style>
      .title { font: 700 30px Arial, sans-serif; fill: #0f172a; }
      .subtitle { font: 500 16px Arial, sans-serif; fill: #334155; }
      .label { font: 700 17px Arial, sans-serif; fill: #0f172a; }
      .small { font: 500 14px Arial, sans-serif; fill: #1e293b; }
      .box { stroke-width: 2; rx: 14; ry: 14; filter: url(#softShadow); }
      .arrow { stroke: #334155; stroke-width: 2.8; fill: none; marker-end: url(#arrowhead); }
      .note { font: 600 13px Arial, sans-serif; fill: #0f172a; }
    </style>
    <marker id="arrowhead" markerWidth="10" markerHeight="7" refX="9" refY="3.5" orient="auto">
      <polygon points="0 0, 10 3.5, 0 7" fill="#334155"/>
    </marker>
  </defs>

  <rect x="0" y="0" width="1180" height="760" fill="url(#bgGrad)"/>
  <text class="title" x="40" y="55">Local SFRA Simulation - Server Structure</text>
  <text class="subtitle" x="40" y="85">Enhanced component view for runtime ownership, render flow, and shared data dependencies</text>

  <rect class="box" x="60" y="140" width="280" height="230" fill="#dff4ff" stroke="#0284c7"/>
  <rect x="70" y="150" width="260" height="56" fill="url(#cardShine)" opacity="0.55"/>
  <text class="label" x="84" y="180">console/</text>
  <text class="small" x="84" y="210">admin.html</text>
  <text class="small" x="84" y="235">admin.css</text>
  <text class="small" x="84" y="260">admin.js</text>
  <text class="small" x="84" y="300">Purpose: Admin UI and control panel</text>

  <rect class="box" x="430" y="110" width="330" height="520" fill="#dcfce7" stroke="#16a34a"/>
  <rect x="440" y="120" width="310" height="58" fill="url(#cardShine)" opacity="0.55"/>
  <text class="label" x="455" y="150">server/</text>
  <text class="small" x="455" y="182">app.js (Express + Nunjucks)</text>
  <text class="small" x="455" y="210">routes/ (admin, storefront, api)</text>
  <text class="small" x="455" y="238">controllers/ (storefront + api)</text>
  <text class="small" x="455" y="266">services/ (product/category/order)</text>
  <text class="small" x="455" y="294">utils/fileStore.js</text>

  <rect x="468" y="330" width="255" height="278" rx="12" ry="12" fill="#bbf7d0" stroke="#15803d" stroke-width="2" filter="url(#nodeGlow)"/>
  <text class="small" x="486" y="362">Runtime responsibilities:</text>
  <text class="small" x="486" y="392">1) Serve /admin</text>
  <text class="small" x="486" y="418">2) Render /, /product/:id, /cart</text>
  <text class="small" x="486" y="444">3) Expose /api/* endpoints</text>
  <text class="small" x="486" y="470">4) Read/write shared JSON</text>
  <text class="small" x="486" y="496">5) Keep single source of truth</text>

  <rect class="box" x="840" y="140" width="280" height="270" fill="#ede9fe" stroke="#7c3aed"/>
  <rect x="850" y="150" width="260" height="56" fill="url(#cardShine)" opacity="0.55"/>
  <text class="label" x="865" y="178">storefront/</text>
  <text class="small" x="865" y="208">views/home.njk</text>
  <text class="small" x="865" y="233">views/product.njk</text>
  <text class="small" x="865" y="258">views/cart.njk</text>
  <text class="small" x="865" y="283">public/css, js, images</text>
  <text class="small" x="865" y="322">Purpose: Shopper UI + templates</text>

  <rect class="box" x="840" y="470" width="280" height="200" fill="#fee2e2" stroke="#dc2626"/>
  <rect x="850" y="480" width="260" height="50" fill="url(#cardShine)" opacity="0.45"/>
  <text class="label" x="865" y="508">data/</text>
  <text class="small" x="865" y="538">products.json</text>
  <text class="small" x="865" y="563">categories.json</text>
  <text class="small" x="865" y="588">orders.json</text>
  <text class="small" x="865" y="623">Shared source of truth</text>

  <path class="arrow" d="M340 255 L430 255"/>
  <text class="note" x="348" y="240">/admin + /api access</text>

  <path class="arrow" d="M840 270 L760 270"/>
  <text class="note" x="760" y="255">rendered pages + assets</text>

  <path class="arrow" d="M760 525 L840 565"/>
  <text class="note" x="685" y="548">read/write JSON</text>

  <path class="arrow" d="M840 520 L760 498"/>
  <text class="note" x="762" y="492">API responses</text>
</svg>
